<svg width="21" height="21" viewBox="0 0 21 20" fill="none" xmlns="http://www.w3.org/2000/svg">
<path d="M3.78571 3H17.2251C18.5903 3 19.5542 4.33739 19.1225 5.63246L17.4558 10.6325C17.1836 11.4491 16.4193 12 15.5585 12H5.07142M3.78571 3L3.74531 2.71716C3.60455 1.73186 2.76071 1 1.76541 1H1M3.78571 3L5.07142 12M5.07142 12L5.25469 13.2828C5.39545 14.2681 6.23929 15 7.23459 15H16M16 15C14.8954 15 14 15.8954 14 17C14 18.1046 14.8954 19 16 19C17.1046 19 18 18.1046 18 17C18 15.8954 17.1046 15 16 15ZM10 17C10 18.1046 9.10457 19 8 19C6.89543 19 6 18.1046 6 17C6 15.8954 6.89543 15 8 15C9.10457 15 10 15.8954 10 17Z" stroke="white" stroke-width="1.71774" stroke-linecap="round" stroke-linejoin="round"/>
</svg>
