<svg width="35" height="35" viewBox="0 0 48 48" fill="none" xmlns="http://www.w3.org/2000/svg">
<path d="M4.51 20.5714C2.9 20.5714 1.6 19.1786 1.6 17.4536C1.6 17.25 1.62 17.0571 1.66 16.8536C2.19 14.6036 6.28 0 24 0C41.72 0 45.81 14.6036 46.34 16.8536C46.39 17.0571 46.4 17.25 46.4 17.4536C46.4 19.1786 45.1 20.5714 43.49 20.5714H4.51ZM12.8 10.2857C12.8 9.34286 12.08 8.57143 11.2 8.57143C10.32 8.57143 9.6 9.34286 9.6 10.2857C9.6 11.2286 10.32 12 11.2 12C12.08 12 12.8 11.2286 12.8 10.2857ZM36.8 12C37.68 12 38.4 11.2286 38.4 10.2857C38.4 9.34286 37.68 8.57143 36.8 8.57143C35.92 8.57143 35.2 9.34286 35.2 10.2857C35.2 11.2286 35.92 12 36.8 12ZM25.6 6.85714C25.6 5.91429 24.88 5.14286 24 5.14286C23.12 5.14286 22.4 5.91429 22.4 6.85714C22.4 7.8 23.12 8.57143 24 8.57143C24.88 8.57143 25.6 7.8 25.6 6.85714ZM0 29.1429C0 26.3036 2.15 24 4.8 24H43.2C45.85 24 48 26.3036 48 29.1429C48 31.9821 45.85 34.2857 43.2 34.2857H4.8C2.15 34.2857 0 31.9821 0 29.1429ZM1.6 39.4286C1.6 38.4857 2.32 37.7143 3.2 37.7143H44.8C45.68 37.7143 46.4 38.4857 46.4 39.4286V41.1429C46.4 44.925 43.53 48 40 48H8C4.47 48 1.6 44.925 1.6 41.1429V39.4286Z" fill="#337d26"/>
</svg>
