<svg width="23" height="30" viewBox="0 0 44 51" fill="none" xmlns="http://www.w3.org/2000/svg">
<g clip-path="url(#clip0_4_2)">
<path d="M13.2786 1.76309C13.8089 0.677344 14.8991 0 16.0875 0H27.9125C29.1009 0 30.1911 0.677344 30.7214 1.76309L31.4286 3.1875H40.8571C42.5955 3.1875 44 4.61191 44 6.375C44 8.13809 42.5955 9.5625 40.8571 9.5625H3.14286C1.40446 9.5625 0 8.13809 0 6.375C0 4.61191 1.40446 3.1875 3.14286 3.1875H12.5714L13.2786 1.76309ZM3.14286 12.75H40.8571V44.625C40.8571 48.1412 38.0384 51 34.5714 51H9.42857C5.96161 51 3.14286 48.1412 3.14286 44.625V12.75ZM12.5714 19.125C11.7071 19.125 11 19.8422 11 20.7188V43.0312C11 43.9078 11.7071 44.625 12.5714 44.625C13.4357 44.625 14.1429 43.9078 14.1429 43.0312V20.7188C14.1429 19.8422 13.4357 19.125 12.5714 19.125ZM22 19.125C21.1357 19.125 20.4286 19.8422 20.4286 20.7188V43.0312C20.4286 43.9078 21.1357 44.625 22 44.625C22.8643 44.625 23.5714 43.9078 23.5714 43.0312V20.7188C23.5714 19.8422 22.8643 19.125 22 19.125ZM31.4286 19.125C30.5643 19.125 29.8571 19.8422 29.8571 20.7188V43.0312C29.8571 43.9078 30.5643 44.625 31.4286 44.625C32.2929 44.625 33 43.9078 33 43.0312V20.7188C33 19.8422 32.2929 19.125 31.4286 19.125Z" fill="#fff"/>
</g>
<defs>
<clipPath id="clip0_4_2">
<rect width="44" height="51" fill="white"/>
</clipPath>
</defs>
</svg>
